<?xml version="1.0" encoding="UTF-8"?>
<svg width="59px" height="18px" viewBox="0 0 59 18" version="1.1" xmlns="http://www.w3.org/2000/svg" xmlns:xlink="http://www.w3.org/1999/xlink">
    <!-- Generator: Sketch 61.2 (89653) - https://sketch.com -->
    <title>JAMIE</title>
    <desc>Created with Sketch.</desc>
    <g id="Mobile" stroke="none" stroke-width="1" fill="none" fill-rule="evenodd">
        <g id="04-About" transform="translate(-18.000000, -43.000000)" fill="#000000" fill-rule="nonzero">
            <path d="M20.216,60.006 C21.476,59.754 22.412,59.322 23.51,58.602 C24.302,58.098 24.986,57.432 25.544,56.586 C25.922,56.01 26.138,55.398 26.264,54.75 C26.39,54.012 26.408,53.238 26.336,52.464 C26.21,50.97 25.85,49.44 25.868,47.982 C25.868,47.334 25.832,46.614 25.868,45.93 C25.886,45.444 25.94,44.958 26.102,44.526 C26.552,44.454 27.02,44.364 27.488,44.364 C27.632,44.346 27.83,44.238 27.794,44.058 C27.65,43.806 27.362,43.752 27.11,43.752 C25.328,43.986 23.438,44.436 21.782,44.976 C21.656,44.994 21.458,45.012 21.332,45.012 C21.062,45.066 21.116,45.408 21.242,45.516 C21.404,45.66 21.638,45.642 21.818,45.642 C22.196,45.534 22.898,45.3 23.6,45.102 C24.284,44.904 24.968,44.724 25.4,44.652 C25.292,45.102 25.22,45.57 25.184,46.056 C25.13,47.1 25.22,48.18 25.328,49.188 L25.724,52.842 C25.814,53.742 25.796,54.75 25.436,55.542 C24.968,56.604 24.176,57.432 23.258,58.062 C22.142,58.836 21.134,59.286 19.856,59.538 C19.604,59.556 19.316,59.484 19.154,59.412 C18.992,59.304 18.848,59.16 18.794,58.872 C18.776,58.764 18.686,58.62 18.578,58.62 C18.362,58.944 18.452,59.358 18.668,59.61 C19.046,60.024 19.64,60.132 20.216,60.006 Z M32.8710588,56.1 C33.2310588,54.696 33.6090588,53.346 34.0770588,52.014 C35.5890588,51.546 37.1190588,51.078 38.6670588,50.736 C38.8290588,51.51 39.1170588,52.284 39.2610588,53.076 C39.3690588,53.67 39.4050588,54.282 39.2250588,54.876 C39.1890588,55.002 39.3870588,55.128 39.4950588,55.056 C39.6030588,55.002 39.6750588,54.93 39.7290588,54.84 C39.7830588,54.768 39.8010588,54.678 39.8550588,54.606 C39.9630588,54.066 39.9630588,53.562 39.8910588,53.076 C39.7470588,52.212 39.4230588,51.384 39.2790588,50.556 C39.6750588,50.43 40.0710588,50.268 40.4130588,50.052 C40.4670588,50.034 40.4850588,49.782 40.3950588,49.782 C39.9450588,49.854 39.4050588,49.962 39.1170588,50.016 C38.4690588,48.09 37.7130588,46.2 36.9030588,44.346 L36.9750588,44.13 C36.9930588,44.04 36.9930588,43.932 36.9390588,43.842 C36.8310588,43.752 36.5610588,43.644 36.4530588,43.86 C35.3010588,46.29 34.4370588,48.882 33.6270588,51.456 C33.5730588,51.492 33.5010588,51.51 33.4290588,51.546 L33.1590588,51.618 C33.0330588,51.69 32.9250588,51.834 32.9430588,51.96 C32.9790588,52.086 33.0690588,52.14 33.1590588,52.176 C33.2310588,52.194 33.3030588,52.194 33.3750588,52.194 C33.0330588,53.31 32.6910588,54.444 32.3850588,55.578 C32.3310588,55.776 32.3850588,55.974 32.5470588,56.136 C32.6550588,56.154 32.7810588,56.172 32.8710588,56.1 Z M34.3110588,51.258 C34.9950588,49.188 35.6970588,47.118 36.5790588,45.156 C37.3170588,46.776 37.9290588,48.45 38.4690588,50.16 C37.0470588,50.466 35.6970588,50.862 34.3110588,51.258 Z M44.3561176,56.01 C44.4641176,55.866 44.4641176,55.65 44.5001176,55.47 C44.6801176,53.292 44.5361176,51.132 44.8061176,48.972 C45.0221176,47.244 45.4181176,45.588 46.3721176,44.166 C46.4621176,44.022 46.2821176,43.824 46.1021176,43.842 C45.7061176,44.022 45.4541176,44.436 45.2921176,44.76 C44.4281176,46.47 44.0681176,48.414 44.0501176,50.43 L43.9961176,56.19 C44.1581176,56.226 44.2841176,56.154 44.3561176,56.01 Z M54.3101176,54.228 C54.2201176,52.77 54.2741176,51.258 54.2921176,49.764 C54.3101176,48.396 54.3101176,47.01 54.1841176,45.696 C54.1841176,45.516 54.1121176,45.39 54.0041176,45.264 C53.8421176,45.192 53.6441176,45.138 53.5361176,45.318 C53.2841176,45.768 52.7261176,46.596 52.3661176,47.19 C51.5741176,48.522 50.7641176,50.124 50.2061176,51.042 C49.8461176,51.618 49.4861176,52.176 49.2161176,52.572 C49.1981176,52.59 49.0901176,52.572 49.0901176,52.518 C48.5501176,51.24 48.2801176,49.872 47.9381176,48.522 C47.6861176,47.496 47.4161176,46.47 47.0561176,45.498 C46.9661176,45.282 46.8401176,45.048 46.6061176,44.904 C46.5161176,44.832 46.3181176,44.832 46.2461176,44.994 C46.2461176,45.174 46.2821176,45.3 46.3541176,45.426 C46.4081176,45.552 46.4621176,45.678 46.4981176,45.804 C46.5881176,46.02 46.6961176,46.362 46.8221176,46.794 C46.9481176,47.226 47.0741176,47.73 47.2181176,48.288 C47.6321176,49.836 48.0641176,51.672 48.4601176,52.716 C48.5501176,52.95 48.6221176,53.22 48.9101176,53.292 C49.0901176,53.346 49.2881176,53.31 49.4321176,53.184 C49.8461176,52.608 50.2061176,52.014 50.5481176,51.42 C50.8901176,50.826 51.1961176,50.232 51.5201176,49.62 C52.1861176,48.378 52.8521176,47.136 53.6261176,45.948 C53.6441176,45.948 53.6441176,45.966 53.6441176,45.966 C53.7341176,47.244 53.6981176,48.486 53.6621176,49.728 C53.6261176,51.006 53.6261176,52.284 53.7521176,53.562 C53.7881176,53.868 53.7881176,54.174 54.0221176,54.408 C54.1301176,54.444 54.2741176,54.354 54.3101176,54.228 Z M59.8551765,56.01 C59.9451765,55.974 60.0351765,55.938 60.1431765,55.92 C62.0511765,55.164 63.8511765,54.156 65.5971765,52.95 L65.7591765,52.788 L65.8851765,52.59 C65.9571765,52.338 65.7411765,52.266 65.5971765,52.356 C64.2471765,53.238 62.8431765,54.084 61.3851765,54.732 C61.7091765,54.282 61.9431765,53.796 62.0511765,53.292 C62.1411765,52.842 62.1591765,52.392 62.1771765,51.924 C62.1771765,51.474 62.1951765,51.006 62.1951765,50.556 L62.2491765,45.696 L62.3131765,45.3 C62.3251765,45.234 62.3391765,45.168 62.3571765,45.102 C62.4111765,44.922 62.5011765,44.76 62.6451765,44.616 C62.7531765,44.544 62.8791765,44.508 63.0051765,44.472 C63.1491765,44.436 63.2931765,44.4 63.4011765,44.31 C63.5271765,44.256 63.4731765,44.076 63.3831765,44.022 C63.2031765,43.932 63.0231765,43.842 62.8071765,43.878 C61.2411765,44.328 59.6571765,44.76 58.0551765,45.12 C57.9291765,45.156 57.9831765,45.318 58.0191765,45.372 C58.1091765,45.552 58.3251765,45.606 58.5231765,45.606 C59.6751765,45.372 60.7731765,45.066 61.8531765,44.76 C61.7631765,44.994 61.7091765,45.228 61.6731765,45.48 L61.6011765,49.89 C61.5831765,50.664 61.6011765,51.474 61.5291765,52.248 C61.4931765,52.788 61.4211765,53.31 61.2771765,53.778 C61.1511765,54.174 60.9171765,54.498 60.6111765,54.786 C60.2691765,55.11 59.8731765,55.38 59.4771765,55.596 C59.4051765,55.704 59.4051765,55.884 59.5491765,55.974 C59.6571765,56.046 59.7651765,56.028 59.8551765,56.01 Z M69.8102353,45.552 C70.2602353,45.174 70.7642353,44.922 71.3042353,44.778 C71.9882353,44.58 72.8702353,44.418 73.6802353,44.562 C74.0582353,44.634 74.4182353,44.76 74.7062353,44.976 C74.7962353,45.048 74.8682353,45.156 74.9402353,45.246 L75.0122353,45.336 C75.0842353,45.408 75.2642353,45.372 75.2642353,45.246 C75.2282353,44.976 75.1742353,44.814 75.0302353,44.616 C74.9402353,44.49 74.8142353,44.4 74.7062353,44.328 L74.3462353,44.148 C73.7342353,44.004 73.1222353,43.932 72.5282353,43.968 C71.5202353,44.022 70.5302353,44.328 69.7382353,44.85 C69.5582353,44.904 69.3962353,45.102 69.4862353,45.354 L69.5402353,45.408 C69.6122353,45.48 69.7022353,45.552 69.8102353,45.552 Z M74.2562353,55.722 C74.8862353,55.488 75.6062353,55.056 75.9122353,54.39 C75.9482353,54.336 75.9482353,54.264 75.9302353,54.21 C75.9122353,54.156 75.8582353,54.066 75.7682353,54.12 C75.5162353,54.39 75.2102353,54.66 74.9042353,54.822 C74.1122353,55.254 72.9962353,55.524 72.0422353,55.326 C71.4122353,55.2 70.8722353,54.876 70.5302353,54.354 C70.2422353,53.886 70.1522353,53.31 70.1702353,52.698 C71.8982353,51.222 73.8422353,50.16 75.6962353,48.972 L75.9482353,48.81 C76.0382353,48.756 76.1102353,48.666 76.1642353,48.522 C76.0562353,48.396 75.9122353,48.396 75.7862353,48.414 C73.8062353,49.368 71.9342353,50.538 70.1702353,51.906 C70.1342353,50.646 70.2602353,49.404 70.4582353,48.18 C70.4942353,47.946 70.5122353,47.712 70.7102353,47.55 L70.8182353,47.478 C70.9622353,47.406 71.1422353,47.334 71.1602353,47.136 C71.0522353,46.974 70.8722353,46.866 70.6562353,46.902 C70.3502353,47.01 70.1342353,47.262 69.9902353,47.55 C69.7562353,48.414 69.7022353,49.332 69.6122353,50.214 C69.6122353,51.15 69.4682353,52.212 69.5582353,53.184 C69.6302353,53.958 69.8642353,54.66 70.4582353,55.218 C70.9622353,55.686 71.6282353,55.902 72.3482353,55.974 C72.9962353,56.028 73.6982353,55.92 74.2562353,55.722 Z" id="JAMIE"></path>
        </g>
    </g>
</svg>