<svg width="59" height="18" xmlns="http://www.w3.org/2000/svg"><g id="Mobile" fill="none" fill-rule="evenodd"><g id="04-About" transform="translate(-18 -43)" fill="#000" fill-rule="nonzero"><path d="M20.216 60.006c1.26-.252 2.196-.684 3.294-1.404a6.78 6.78 0 0 0 2.034-2.016c.378-.576.594-1.188.72-1.836a8.797 8.797 0 0 0 .072-2.286c-.126-1.494-.486-3.024-.468-4.482 0-.648-.036-1.368 0-2.052.018-.486.072-.972.234-1.404.45-.072.918-.162 1.386-.162.144-.018.342-.126.306-.306-.144-.252-.432-.306-.684-.306a30.576 30.576 0 0 0-5.328 1.224 3.79 3.79 0 0 1-.45.036c-.27.054-.216.396-.09.504.162.144.396.126.576.126.378-.108 1.08-.342 1.782-.54.684-.198 1.368-.378 1.8-.45a8.79 8.79 0 0 0-.216 1.404c-.054 1.044.036 2.124.144 3.132l.396 3.654c.09.9.072 1.908-.288 2.7-.468 1.062-1.26 1.89-2.178 2.52-1.116.774-2.124 1.224-3.402 1.476a1.633 1.633 0 0 1-.702-.126.768.768 0 0 1-.36-.54c-.018-.108-.108-.252-.216-.252-.216.324-.126.738.09.99.378.414.972.522 1.548.396zM32.871 56.1c.36-1.404.738-2.754 1.206-4.086 1.512-.468 3.042-.936 4.59-1.278.162.774.45 1.548.594 2.34.108.594.144 1.206-.036 1.8-.036.126.162.252.27.18a.547.547 0 0 0 .234-.216c.054-.072.072-.162.126-.234a4.4 4.4 0 0 0 .036-1.53c-.144-.864-.468-1.692-.612-2.52a4.947 4.947 0 0 0 1.134-.504c.054-.018.072-.27-.018-.27-.45.072-.99.18-1.278.234a69.772 69.772 0 0 0-2.214-5.67l.072-.216a.406.406 0 0 0-.036-.288c-.108-.09-.378-.198-.486.018-1.152 2.43-2.016 5.022-2.826 7.596-.054.036-.126.054-.198.09l-.27.072c-.126.072-.234.216-.216.342.036.126.126.18.216.216a.876.876 0 0 0 .216.018c-.342 1.116-.684 2.25-.99 3.384a.558.558 0 0 0 .162.558c.108.018.234.036.324-.036zm1.44-4.842c.684-2.07 1.386-4.14 2.268-6.102.738 1.62 1.35 3.294 1.89 5.004-1.422.306-2.772.702-4.158 1.098zm10.045 4.752c.108-.144.108-.36.144-.54.18-2.178.036-4.338.306-6.498.216-1.728.612-3.384 1.566-4.806.09-.144-.09-.342-.27-.324-.396.18-.648.594-.81.918-.864 1.71-1.224 3.654-1.242 5.67l-.054 5.76c.162.036.288-.036.36-.18zm9.954-1.782c-.09-1.458-.036-2.97-.018-4.464.018-1.368.018-2.754-.108-4.068 0-.18-.072-.306-.18-.432-.162-.072-.36-.126-.468.054-.252.45-.81 1.278-1.17 1.872-.792 1.332-1.602 2.934-2.16 3.852-.36.576-.72 1.134-.99 1.53-.018.018-.126 0-.126-.054-.54-1.278-.81-2.646-1.152-3.996-.252-1.026-.522-2.052-.882-3.024-.09-.216-.216-.45-.45-.594-.09-.072-.288-.072-.36.09 0 .18.036.306.108.432.054.126.108.252.144.378.09.216.198.558.324.99.126.432.252.936.396 1.494.414 1.548.846 3.384 1.242 4.428.09.234.162.504.45.576a.55.55 0 0 0 .522-.108c.414-.576.774-1.17 1.116-1.764.342-.594.648-1.188.972-1.8.666-1.242 1.332-2.484 2.106-3.672.018 0 .018.018.018.018.09 1.278.054 2.52.018 3.762-.036 1.278-.036 2.556.09 3.834.036.306.036.612.27.846.108.036.252-.054.288-.18zm5.545 1.782c.09-.036.18-.072.288-.09 1.908-.756 3.708-1.764 5.454-2.97l.162-.162.126-.198c.072-.252-.144-.324-.288-.234-1.35.882-2.754 1.728-4.212 2.376.324-.45.558-.936.666-1.44.09-.45.108-.9.126-1.368 0-.45.018-.918.018-1.368l.054-4.86.064-.396c.012-.066.026-.132.044-.198.054-.18.144-.342.288-.486.108-.072.234-.108.36-.144.144-.036.288-.072.396-.162.126-.054.072-.234-.018-.288-.18-.09-.36-.18-.576-.144-1.566.45-3.15.882-4.752 1.242-.126.036-.072.198-.036.252.09.18.306.234.504.234 1.152-.234 2.25-.54 3.33-.846-.09.234-.144.468-.18.72l-.072 4.41c-.018.774 0 1.584-.072 2.358-.036.54-.108 1.062-.252 1.53-.126.396-.36.72-.666 1.008a5.45 5.45 0 0 1-1.134.81c-.072.108-.072.288.072.378.108.072.216.054.306.036zm9.955-10.458c.45-.378.954-.63 1.494-.774.684-.198 1.566-.36 2.376-.216.378.072.738.198 1.026.414.09.072.162.18.234.27l.072.09c.072.072.252.036.252-.09-.036-.27-.09-.432-.234-.63a1.205 1.205 0 0 0-.324-.288l-.36-.18a6.305 6.305 0 0 0-1.818-.18c-1.008.054-1.998.36-2.79.882a.381.381 0 0 0-.252.504l.054.054c.072.072.162.144.27.144zm4.446 10.17c.63-.234 1.35-.666 1.656-1.332a.213.213 0 0 0 .018-.18c-.018-.054-.072-.144-.162-.09-.252.27-.558.54-.864.702-.792.432-1.908.702-2.862.504-.63-.126-1.17-.45-1.512-.972-.288-.468-.378-1.044-.36-1.656 1.728-1.476 3.672-2.538 5.526-3.726l.252-.162a.532.532 0 0 0 .216-.288c-.108-.126-.252-.126-.378-.108a31.394 31.394 0 0 0-5.616 3.492c-.036-1.26.09-2.502.288-3.726.036-.234.054-.468.252-.63l.108-.072c.144-.072.324-.144.342-.342a.5.5 0 0 0-.504-.234c-.306.108-.522.36-.666.648-.234.864-.288 1.782-.378 2.664 0 .936-.144 1.998-.054 2.97.072.774.306 1.476.9 2.034.504.468 1.17.684 1.89.756a4.766 4.766 0 0 0 1.908-.252z" id="JAMIE"/></g></g></svg>